<?xml version="1.0" encoding="UTF-8"?>
<!DOCTYPE svg PUBLIC "-//W3C//DTD SVG 1.1//EN" "http://www.w3.org/Graphics/SVG/1.1/DTD/svg11.dtd">
<!-- Creator: CorelDRAW 2018 (64-Bit Evaluation Version) -->
<svg xmlns="http://www.w3.org/2000/svg" xml:space="preserve" width="42px" height="126px" version="1.1" style="shape-rendering:geometricPrecision; text-rendering:geometricPrecision; image-rendering:optimizeQuality; fill-rule:evenodd; clip-rule:evenodd"
viewBox="0 0 81.17 242.94"
 xmlns:xlink="http://www.w3.org/1999/xlink">
 <defs>
  <style type="text/css">
   <![CDATA[
    .fil9 {fill:#EA4335}
    .fil7 {fill:#2E2C2C;fill-rule:nonzero}
    .fil6 {fill:#333131;fill-rule:nonzero}
    .fil3 {fill:#EA4335;fill-rule:nonzero}
    .fil5 {fill:#EAC8A7;fill-rule:nonzero}
    .fil0 {fill:#EBC9A8;fill-rule:nonzero}
    .fil2 {fill:#EC5649;fill-rule:nonzero}
    .fil1 {fill:#F0F0F0;fill-rule:nonzero}
    .fil8 {fill:#F2F2F2;fill-rule:nonzero}
    .fil4 {fill:#F7F7F7;fill-rule:nonzero}
   ]]>
  </style>
 </defs>
 <g id="Layer_x0020_1">
  <metadata id="CorelCorpID_0Corel-Layer"/>
  <g id="_1845897297040">
   <path class="fil0" d="M2.98 16.3c-0.87,-0.88 -1.71,-1.8 -2.54,-2.57 -0.14,-1.19 -0.28,-2.38 -0.42,-3.57 -0.02,-0.19 -0.04,-0.39 0.05,-0.55 0.08,-0.14 0.23,-0.23 0.38,-0.3 0.63,-0.35 1.26,-0.69 1.9,-1.04 0.13,-0.06 0.26,-0.13 0.4,-0.14 0.31,-0.02 0.56,0.25 0.75,0.49 0.68,0.85 3.08,3.7 3.15,1.39 0.01,-0.35 0.32,-0.64 0.66,-0.73 0.35,-0.09 0.71,-0.03 1.06,0.03 0.25,0.04 0.54,0.12 0.63,0.36 0.04,0.11 0.02,0.23 0,0.34 -0.18,1.22 -0.42,2.25 -0.17,3.49 0.24,1.36 0.48,2.72 0.72,4.08 0.01,0.07 -1.79,0.98 -1.95,1.09 -0.95,0.58 -0.56,0.84 -1.62,0.18 -1.05,-0.64 -2.04,-1.58 -3,-2.55z"/>
   <polygon class="fil1" points="45.35,38.36 21.81,41.3 9.91,15.08 3.7,18.77 10.07,57.36 18.3,65.99 34.5,64.66 "/>
   <polygon class="fil0" points="65.5,121.64 56.87,177.27 59.93,217.45 53.64,219.42 48.01,182.29 35.99,114.44 "/>
   <polygon class="fil2" points="53.64,219.42 52.95,223.58 54.53,231.49 59.72,231.05 60.7,219.33 59.94,217.45 "/>
   <polygon class="fil0" points="14.61,119.99 17.38,167.17 29.13,233.12 35.49,233.05 32.66,171.9 40.92,115.52 "/>
   <polygon class="fil2" points="28.92,233.13 21.18,239.03 22.48,242.94 37.11,238.71 35.49,233.05 "/>
   <polygon class="fil2" points="13.2,127.06 13.47,181.82 20.95,218.75 38.01,216.28 37.51,173.6 41.05,126.73 39.3,119.63 14.63,122.14 "/>
   <polygon class="fil3" points="43.46,174.41 48.74,213.25 63.58,211.18 60.17,174.21 65.68,126.93 62.45,114.13 37.53,117.89 "/>
   <path class="fil4" d="M72.83 58.22c-1.64,-5.49 -4.53,-14.85 -9.37,-17.5 -0.1,-0.05 -0.2,-0.11 -0.31,-0.16 -0.96,-0.51 -1.99,-0.96 -3.06,-1.35 -1.94,-1.21 -4.71,-1.74 -7.46,-1.55 -2.52,-0.17 -5.02,0.03 -7.28,0.7 -1.06,0.31 -2.06,0.83 -3.05,1.35 -2.9,1.51 -5.13,2.16 -6.94,5.13 -1.56,2.58 -2.5,5.6 -3.69,8.38 -9.93,23.28 -18,54.35 -24.44,78.95 3.04,-0.29 6.09,-0.79 9.13,-1.27 13.98,1.57 29.94,5.79 42.27,9.98 3.69,2.2 7.33,4.51 10.94,6.86 -0.92,-0.6 3.48,-20.07 3.82,-22.26 1.26,-7.94 2.36,-15.91 3.11,-23.92 1.39,-14.86 0.56,-29.16 -3.67,-43.34z"/>
   <path class="fil5" d="M66.92 20.08c-2.57,-9.76 -16.12,-13.91 -19.95,-2.98 -1.15,3.29 -1.93,6.8 -1.48,10.26 0.46,3.46 2.33,6.86 5.38,8.45 0.02,0.01 0.04,0.02 0.05,0.03 0.53,0.27 -2.42,5.88 -2.63,6.32 -0.32,0.71 -0.65,1.42 -0.81,2.18 -0.36,1.68 0.15,3.42 0.75,5.04 0.54,1.47 1.17,2.92 1.88,4.33 0.06,0.12 0.12,0.25 0.24,0.33 0.27,0.19 0.63,0.01 0.91,-0.18 2.18,-1.49 4.11,-3.35 5.67,-5.48 0.36,-0.48 0.7,-0.99 0.9,-1.56 0.23,-0.65 0.26,-1.35 0.26,-2.04 0,-1.92 -1.63,-6.66 -0.66,-8.16 0.36,-0.57 2.17,-0.99 2.79,-1.37 1.03,-0.64 1.96,-1.44 2.79,-2.32 3.09,-3.3 5.1,-8.34 3.91,-12.85z"/>
   <path class="fil6" d="M47.13 20.11c-1.54,2.48 -1.45,5.51 -1.06,8.3 0.38,2.73 0.08,5.4 0.71,8.1 -0.29,0.42 -0.94,0.14 -1.34,-0.17 -2.37,-1.82 -4.72,-3.67 -7.04,-5.55 -0.23,-0.19 -0.47,-0.39 -0.61,-0.66 -0.17,-0.34 -0.16,-0.75 -0.13,-1.13 0.55,-7.59 3.52,-13.13 7.77,-19.11 2.06,-2.91 7.57,-6.12 10.7,-2.65 0.71,0.79 0.97,1.89 1.15,2.94 0.11,0.63 0.21,1.28 0.06,1.91 -0.57,2.48 -2.89,2.34 -4.71,3.14 -2.25,0.98 -4.21,2.79 -5.5,4.88z"/>
   <path class="fil7" d="M64.41 25.11c0,2.19 -0.51,4.67 -1.16,6.73 -0.23,0.72 -1.6,2.38 -1.64,2.87 -0.13,1.4 2.76,4.7 3.51,5.92 4.51,-2.5 9.03,-5.01 13.54,-7.51 0.35,-0.19 0.71,-0.4 0.91,-0.74 0.18,-0.32 0.21,-0.7 0.22,-1.06 0.25,-7.14 -1.59,-13.57 -4.31,-20.03 -2.72,-6.46 -8.82,-11.71 -16.01,-11.26 -5.81,0.36 -9.87,4.65 -7.75,10.63 1.6,4.52 7.22,5.48 10.28,8.56 1.92,1.94 2.47,3.87 2.41,5.89z"/>
   <path class="fil0" d="M57.85 121.95c-0.26,0.77 -0.61,1.51 -1.04,2.2 -0.22,0.36 -0.46,0.71 -0.8,0.96 -0.23,0.17 -0.51,0.29 -0.77,0.41 -0.64,0.28 -1.28,0.57 -1.91,0.85 -0.22,0.09 -0.45,0.19 -0.68,0.15 -0.17,-0.04 -0.31,-0.14 -0.45,-0.25 -0.72,-0.54 -1.42,-1.11 -2.1,-1.7 -0.11,-0.1 -0.22,-0.2 -0.28,-0.34 -0.1,-0.28 0.08,-0.58 0.26,-0.82 0.95,-1.17 0.61,-1.6 0.91,-2.87 0.2,-0.86 0.81,-1.28 1.46,-1.85 1.08,-0.96 2.16,-1.91 3.24,-2.86 0.12,-0.11 2.62,1.66 2.93,1.85 -0.4,0.95 -0.22,2.14 -0.45,3.16 -0.09,0.37 -0.19,0.74 -0.32,1.11z"/>
   <path class="fil8" d="M59.29 47.91c-0.46,0.43 -0.87,0.95 -1.24,1.57 -1.51,2.58 -1.74,5.77 -1.22,8.73 0.82,4.67 3.11,9.13 4.45,13.68 1.54,5.21 3.07,10.42 4.6,15.63l-12.38 29.23 5.99 3.37c0,0 21.68,-32.42 21.68,-32.43 -2.37,-6.81 -4.72,-13.46 -6.64,-20.38 -1.73,-6.2 -2.32,-13.23 -6.69,-18.25 -2.47,-2.84 -6.07,-3.47 -8.55,-1.15z"/>
   <polygon class="fil9" points="52.95,223.58 60.7,219.33 59.93,217.45 53.64,219.42 "/>
   <polygon class="fil9" points="35.49,233.05 28.92,233.13 21.18,239.03 "/>
  </g>
 </g>
</svg>
