<?xml version="1.0" encoding="UTF-8"?>
<!DOCTYPE svg PUBLIC "-//W3C//DTD SVG 1.1//EN" "http://www.w3.org/Graphics/SVG/1.1/DTD/svg11.dtd">
<!-- Creator: CorelDRAW 2018 (64-Bit Evaluation Version) -->
<svg xmlns="http://www.w3.org/2000/svg" xml:space="preserve" width="24px" height="24px" version="1.1" style="shape-rendering:geometricPrecision; text-rendering:geometricPrecision; image-rendering:optimizeQuality; fill-rule:evenodd; clip-rule:evenodd"
viewBox="0 0 3.97 3.97"
 xmlns:xlink="http://www.w3.org/1999/xlink">
 <defs>
  <style type="text/css">
   <![CDATA[
    .fil0 {fill:black}
    .fil1 {fill:white;fill-rule:nonzero}
   ]]>
  </style>
 </defs>
 <g id="Layer_x0020_1">
  <metadata id="CorelCorpID_0Corel-Layer"/>
  <rect class="fil0" width="3.97" height="3.97"/>
  <path class="fil1" d="M0.88 3.2c-0.02,0 -0.03,-0.01 -0.04,-0.03 -0.01,-0.02 -0.02,-0.04 -0.02,-0.05 0,-0.02 0,-0.04 0.01,-0.05 0.01,-0.01 0.02,-0.02 0.05,-0.02 0.06,0 0.12,-0.01 0.17,-0.03 0.05,-0.02 0.07,-0.04 0.07,-0.08l0 -1.84c0,-0.05 -0.01,-0.08 -0.04,-0.11 -0.02,-0.02 -0.05,-0.03 -0.08,-0.04 -0.03,-0.01 -0.07,-0.01 -0.12,-0.02 -0.03,0 -0.05,-0.01 -0.05,-0.01 -0.01,-0.01 -0.02,-0.03 -0.02,-0.05 0,-0.02 0.01,-0.04 0.02,-0.06 0.01,-0.02 0.03,-0.03 0.04,-0.03l0.32 0c0.09,0 0.19,0 0.32,-0.01 0.02,0 0.06,0 0.13,0 0.07,-0.01 0.15,-0.01 0.23,-0.01 0.28,0 0.5,0.06 0.66,0.16 0.16,0.1 0.24,0.27 0.24,0.49 0,0.18 -0.05,0.33 -0.15,0.44 -0.1,0.1 -0.24,0.18 -0.43,0.23 0.1,0.01 0.18,0.04 0.25,0.08 0.06,0.05 0.11,0.1 0.15,0.16 0.03,0.06 0.07,0.15 0.11,0.25 0.03,0.07 0.05,0.12 0.07,0.16 0.02,0.04 0.04,0.08 0.07,0.12 0.03,0.07 0.07,0.12 0.11,0.15 0.05,0.03 0.09,0.05 0.14,0.05 0.02,0 0.04,0.01 0.05,0.02 0.01,0.01 0.01,0.03 0.01,0.05 0,0.02 0,0.04 -0.02,0.06 -0.01,0.01 -0.02,0.02 -0.04,0.02l-0.5 0c-0.04,0 -0.08,-0.02 -0.12,-0.06 -0.04,-0.04 -0.07,-0.09 -0.09,-0.15 -0.03,-0.06 -0.06,-0.14 -0.09,-0.24 -0.05,-0.14 -0.09,-0.24 -0.12,-0.32 -0.04,-0.08 -0.09,-0.15 -0.15,-0.21 -0.06,-0.06 -0.13,-0.08 -0.21,-0.08l-0.27 0 0 0.75c0,0.04 0.01,0.08 0.04,0.1 0.03,0.02 0.06,0.04 0.1,0.04 0.04,0.01 0.09,0.02 0.15,0.02 0.02,0 0.04,0.01 0.05,0.02 0.01,0 0.01,0.02 0.01,0.05 0,0.01 0,0.03 -0.02,0.05 -0.01,0.02 -0.02,0.03 -0.04,0.03l-0.95 0zm0.93 -1.21c0.16,0 0.28,-0.04 0.38,-0.12 0.09,-0.08 0.13,-0.22 0.13,-0.41 0,-0.19 -0.04,-0.32 -0.14,-0.41 -0.09,-0.08 -0.22,-0.12 -0.4,-0.12l-0.24 0 0 1.06 0.27 0z"/>
 </g>
</svg>
