<?xml version="1.0" encoding="UTF-8"?>
<!DOCTYPE svg PUBLIC "-//W3C//DTD SVG 1.1//EN" "http://www.w3.org/Graphics/SVG/1.1/DTD/svg11.dtd">
<!-- Creator: CorelDRAW 2018 (64-Bit Evaluation Version) -->
<svg xmlns="http://www.w3.org/2000/svg" xml:space="preserve" width="54px" height="130px" version="1.1" style="shape-rendering:geometricPrecision; text-rendering:geometricPrecision; image-rendering:optimizeQuality; fill-rule:evenodd; clip-rule:evenodd"
viewBox="0 0 37.45 90.32"
 xmlns:xlink="http://www.w3.org/1999/xlink">
 <defs>
  <style type="text/css">
   <![CDATA[
    .fil7 {fill:#4B3E38;fill-rule:nonzero}
    .fil8 {fill:#53453E;fill-rule:nonzero}
    .fil1 {fill:#5AB974;fill-rule:nonzero}
    .fil2 {fill:#6BC082;fill-rule:nonzero}
    .fil3 {fill:#E5CCB4;fill-rule:nonzero}
    .fil0 {fill:#EAC8A7;fill-rule:nonzero}
    .fil5 {fill:#EEEEEE;fill-rule:nonzero}
    .fil4 {fill:#F0F0F0;fill-rule:nonzero}
    .fil6 {fill:#F4F4F4;fill-rule:nonzero}
   ]]>
  </style>
 </defs>
 <g id="Layer_x0020_1">
  <metadata id="CorelCorpID_0Corel-Layer"/>
  <g id="_1845856223248">
   <path class="fil0" d="M31.62 1.88c-0.03,0.04 -0.06,0.09 -0.08,0.14 -0.16,0.48 0.05,0.83 0.03,1.33 0,0.22 -0.5,0.52 -0.11,0.79 0.14,0.1 0.52,0.29 0.82,0.5 0.45,0.3 0.83,0.96 1.03,1.53 0.81,2.25 0.98,4.67 1.07,7.06 0.01,0.13 0.01,0.27 -0.05,0.4 -0.1,0.22 -0.36,0.31 -0.59,0.38 -1.08,0.34 -2.13,0.78 -3.13,1.31 -0.9,0.48 -1.77,1.04 -2.37,1.86 -0.6,0.81 -0.89,1.91 -0.52,2.85 0.27,0.71 0.9,1.26 1.64,1.44 1.82,0.45 3.45,-1.76 4.64,-2.85 1.12,-1.03 2.16,-2.14 3.13,-3.32 0.11,-0.14 0.24,-0.29 0.29,-0.48 0.05,-0.19 0.03,-0.39 0,-0.59 -0.37,-2.55 -0.96,-5.06 -1.6,-7.57 -0.18,-0.69 -0.69,-1.19 -0.85,-1.83 -0.1,-0.41 0.11,-0.8 0.1,-1.21 -0.01,-0.4 -0.12,-0.92 -0.28,-1.29 -0.31,-0.73 -1.1,-0.92 -1.78,-1.15 -0.17,-0.06 -0.28,-0.1 -0.45,-0.07 -0.27,0.04 -0.45,0.23 -0.64,0.41 -0.11,0.11 -0.21,0.23 -0.3,0.36z"/>
   <path class="fil1" d="M33.27 18.68c-0.64,-1.37 -1.28,-2.75 -1.92,-4.13 0.04,0.09 -6.42,2.52 -6.8,2.68 -1.45,0.6 -2.95,1.24 -4.01,2.39 -2.28,2.46 -0.42,6.47 3.01,6 3.74,-0.5 7.59,-2.46 10.25,-5.11 0.06,-0.06 0.12,-0.12 0.14,-0.2 0.03,-0.11 -0.02,-0.22 -0.06,-0.32 -0.2,-0.44 -0.41,-0.87 -0.61,-1.31z"/>
   <path class="fil2" d="M0.6 58.2c-0.08,0.52 -0.14,1.04 -0.18,1.52 -0.08,0.82 0.05,1.76 -0.16,2.56 -0.08,0.32 -0.19,0.62 -0.24,0.95 -0.05,0.33 -0.02,0.69 0.14,0.95 0.2,0.33 0.57,0.45 0.9,0.52 0.32,0.07 0.64,0.13 0.95,0.05 0.62,-0.16 1.08,-0.83 1.27,-1.55 0.23,-0.87 0.12,-1.73 0.09,-2.6 0,-1.39 -0.37,-2.57 -0.32,-3.97 0.01,-0.23 0.02,-0.48 -0.11,-0.68 -0.14,-0.21 -0.41,-0.3 -0.66,-0.29 -0.49,0.02 -0.97,0.15 -1.17,0.63 -0.24,0.57 -0.4,1.23 -0.51,1.91z"/>
   <path class="fil3" d="M1.9 57.1c-0.27,0.21 -0.47,0.5 -0.65,0.79 -0.13,0.19 -0.25,0.44 -0.13,0.64 0.05,0.07 0.13,0.12 0.2,0.16 0.32,0.19 0.63,0.39 0.95,0.58 0.06,0.03 0.13,0.07 0.2,0.06 0.07,0 0.12,-0.04 0.16,-0.08 0.31,-0.26 0.6,-0.54 0.87,-0.82 1.23,-1.31 -0.5,-2.19 -1.6,-1.33z"/>
   <path class="fil4" d="M23.56 45.46c-0.08,-0.31 -0.34,-0.52 -0.61,-0.71 -2.8,-1.9 -5.85,-3.19 -9.16,-3.93 -0.27,-0.06 -2.05,5.45 -2.22,5.99 -0.66,2.07 -1.22,4.18 -1.7,6.3 -0.53,2.33 -1.08,4.65 -1.64,6.97 -1.08,-1.06 -2.24,-2.04 -3.46,-2.92 -0.21,-0.15 -0.44,-0.31 -0.7,-0.32 -0.31,-0.02 -0.6,0.16 -0.85,0.36 -0.44,0.33 -0.85,0.7 -1.22,1.11 -0.13,0.13 -0.25,0.28 -0.28,0.46 -0.03,0.18 0.04,0.36 0.11,0.53 1.22,2.9 3.14,7.56 4.69,10.3 0.74,1.33 2.17,1.79 3.63,1.67 0.37,-0.03 0.63,-0.13 0.95,-0.25 0.38,-0.13 0.8,-0.13 1.19,-0.26 0.25,-0.09 0.45,-0.29 0.63,-0.49 1.55,-1.73 2.61,-4.16 3.55,-6.26 1.02,-2.29 1.85,-4.66 2.6,-7.05 0.05,-0.18 0.11,-0.35 0.17,-0.53 1.18,-3.57 2.77,-6.64 4.19,-10.15 0.11,-0.27 0.21,-0.52 0.13,-0.82z"/>
   <path class="fil5" d="M8.23 60.08c-1.08,-1.06 -2.24,-2.04 -3.46,-2.92 -0.21,-0.15 -0.44,-0.31 -0.7,-0.32 -0.31,-0.02 -0.6,0.16 -0.85,0.36 -0.44,0.33 -0.85,0.7 -1.22,1.11 -0.13,0.13 -0.25,0.28 -0.28,0.46 -0.03,0.18 0.04,0.36 0.11,0.53 1.22,2.9 3.14,7.56 4.69,10.3 0.74,1.33 2.17,1.79 3.63,1.67 0.37,-0.03 0.63,-0.13 0.95,-0.25l-2.87 -10.94z"/>
   <path class="fil3" d="M19.16 86.24c0.51,0.2 1.04,0.16 1.56,0.26 0.52,-1.78 0.86,-3.54 1.03,-5.41 -1.06,0.63 -1.56,-0.08 -2.04,1.56 -0.15,0.52 -0.2,2.82 -0.55,3.59z"/>
   <path class="fil2" d="M21.25 85.97c0,1.01 0.79,2.09 1.23,3 0.05,0.1 0.1,0.21 0.11,0.33 0,0.18 -0.11,0.33 -0.21,0.48 -0.14,0.19 -0.3,0.4 -0.53,0.49 -0.22,0.09 -0.47,0.04 -0.71,-0.01 -0.39,-0.08 -0.78,-0.19 -1.16,-0.31 -0.09,-0.03 -0.19,-0.06 -0.27,-0.12 -0.09,-0.08 -0.15,-0.19 -0.2,-0.29 -0.27,-0.55 -0.5,-0.94 -0.49,-1.54 0.02,-0.63 0.1,-1.28 -0.02,-1.9 -0.05,-0.3 -0.13,-0.68 0.13,-0.85 0.2,-0.13 0.57,0.05 0.78,0.08 0.39,0.07 0.74,0.04 1.09,0.24 0.07,0.04 0.14,0.09 0.19,0.16 0.04,0.07 0.06,0.15 0.06,0.24z"/>
   <path class="fil6" d="M18.64 54.03c0.22,4.47 0.7,8.92 0.36,13.43 -0.42,5.56 -0.06,11.22 -0.69,16.73 0.63,0.22 1.28,0.39 1.94,0.51 0.76,0.15 1.98,0.31 2.49,-0.41 0.26,-0.36 0.33,-1.07 0.44,-1.5 0.35,-1.37 0.68,-2.76 1,-4.14 0.91,-3.92 1.92,-7.85 2.4,-11.84 0.49,-4.21 1.02,-8.41 1.61,-12.58 0.3,-2.16 0.52,-4.33 0.64,-6.5 0.03,-0.56 0.33,-6.34 0.04,-6.38 -3.34,-0.49 -6.66,-0.36 -9.95,0.42 -0.32,0.08 -0.64,0.19 -0.82,0.44 -0.18,0.26 -0.17,0.53 -0.17,0.82 0.06,2.72 0.45,5.38 0.57,8.11 0.04,0.96 0.09,1.91 0.14,2.89z"/>
   <path class="fil2" d="M16.76 18.14c-0.06,0.02 -0.11,0.04 -0.17,0.06 -0.9,0.34 -1.66,0.95 -2.41,1.56 -1.12,0.91 -1.68,1.3 -2.11,2.65 -0.4,1.25 -0.66,2.58 -0.9,3.87 -1.28,6.63 -1.52,13.23 -2.44,19.91 -0.24,1.82 -0.44,3.96 0.91,5.21 2.38,-1.86 5.38,-1.97 8.28,-1.97 2.03,0 4.02,-0.66 6.06,-0.43 1.94,0.21 3.64,-0.27 5.62,-0.14 0.48,0.03 1.08,0.02 1.27,-0.42 -0.68,-2.05 -0.67,-4.25 -0.83,-6.41 -0.4,-5.57 -2.24,-10.92 -2.99,-16.46 -0.25,-1.88 -0.39,-5 -1.84,-6.43 -1.59,-1.55 -5.2,-1.58 -7.24,-1.28 -0.41,0.07 -0.82,0.15 -1.21,0.28z"/>
   <path class="fil0" d="M18.27 18.05c0.03,0.06 0.08,0.13 0.14,0.18 0.23,0.24 0.56,0.37 0.89,0.42 0.42,0.06 0.86,-0.01 1.28,-0.09 0.58,-0.11 0.56,-0.45 0.64,-0.97 0.05,-0.29 0.08,-0.57 0.1,-0.86 0.01,-0.16 -0.05,-0.72 0.05,-0.84 0.07,-0.07 0.35,-0.05 0.47,-0.11 0.19,-0.1 0.35,-0.28 0.47,-0.46 0.18,-0.3 0.29,-0.63 0.39,-0.96 0.17,-0.58 0.35,-1.15 0.52,-1.73 0.18,-0.59 0.36,-1.18 0.42,-1.79 0.09,-0.92 -0.06,-2.22 -0.76,-2.9 -0.63,-0.61 -1.56,-0.83 -2.41,-0.94 -1.12,-0.14 -2.29,0.07 -3.26,0.66 -0.39,0.24 -0.76,0.56 -1,0.99 -0.35,0.66 -0.33,1.49 -0.29,2.26 0.04,0.71 0.07,1.43 0.11,2.14 0.04,0.82 0.14,1.77 0.76,2.21 0.32,0.24 0.75,0.29 1.03,0.59 0.35,0.38 0.33,0.95 0.34,1.44 0.01,0.27 -0.01,0.53 0.11,0.76z"/>
   <path class="fil7" d="M21.83 8.82c0.04,0.07 0.07,0.14 0.09,0.21 0.13,0.38 0.05,0.8 0.17,1.18 0.21,0.61 0.91,0.97 1.01,1.59 0.09,0.52 -0.26,1 -0.29,1.52 -0.03,0.57 0.33,1.1 0.28,1.66 -0.05,0.49 -0.36,1.17 -0.65,1.56 0.09,-0.12 0.9,-0.08 1.11,-0.21 0.33,-0.19 0.36,-0.32 0.46,-0.66 0.09,-0.33 0.02,-0.66 0.17,-1 0.18,-0.42 0.56,-0.73 0.69,-1.18 0.18,-0.61 -0.15,-1.25 -0.12,-1.89 0.04,-0.97 0.87,-1.87 0.57,-2.79 -0.18,-0.54 -0.7,-0.88 -1,-1.36 -0.22,-0.37 -0.3,-0.8 -0.46,-1.21 -0.15,-0.4 -0.42,-0.8 -0.83,-0.92 -0.23,-0.07 -0.47,-0.04 -0.71,-0.08 -0.4,-0.08 -0.74,-0.36 -1.13,-0.49 -0.56,-0.19 -1.55,0.38 -1.87,0.85 -0.33,0.47 -0.16,0.87 0.17,1.29 0.55,0.69 1.88,1.14 2.34,1.93z"/>
   <path class="fil8" d="M14.3 5.97c-0.34,0.25 -0.75,0.43 -1.06,0.71 -0.59,0.56 -0.71,1.46 -0.73,2.28 -0.02,0.73 -0.34,1.37 -0.26,2.13 0.06,0.51 0.27,1.03 0.69,1.33 0.51,0.37 1.32,0.43 1.56,1.03 0.25,0.65 -0.42,1.46 -0.02,2.02 0.23,0.31 0.67,0.36 0.99,0.57 0.36,0.23 0.54,0.64 0.76,1.01 0.22,0.37 0.54,0.73 0.97,0.74 0.02,-0.65 0.04,-1.16 -0.24,-1.75 -0.16,-0.35 -0.64,-0.99 -0.27,-1.36 0.23,-0.31 0.77,-0.41 0.79,-0.8 0,-0.18 -0.12,-0.34 -0.22,-0.49 -0.39,-0.59 -0.43,-1.37 -0.17,-2.02 0.27,-0.66 0.81,-1.18 1.44,-1.48 0.74,-0.36 0.62,-0.55 0.84,-1.26 0.2,-0.65 0.57,-0.8 1.16,-1.04 0.52,-0.21 0.69,-0.35 0.89,-0.84 0.14,-0.37 0.32,-0.8 0.11,-1.2 -0.16,-0.32 -0.46,-0.55 -0.75,-0.77 -0.6,-0.46 -1.27,-0.94 -2.02,-0.89 -0.42,0.03 -0.81,0.23 -1.23,0.25 -0.28,0.02 -0.56,-0.04 -0.83,-0.05 -0.48,-0.02 -0.98,0.13 -1.37,0.41 -0.39,0.29 -0.37,0.59 -0.59,0.99 -0.11,0.2 -0.26,0.35 -0.44,0.48z"/>
   <path class="fil7" d="M15.98 3.3c0.07,-0.45 0.03,-1.04 -0.4,-1.19 -0.24,-0.08 -0.51,0.01 -0.75,-0.04 -0.53,-0.11 -0.71,-0.74 -0.98,-1.2 -0.04,-0.07 -0.09,-0.14 -0.16,-0.17 -0.11,-0.05 -0.23,-0.01 -0.34,0.01 -0.52,0.06 -0.92,-0.45 -1.41,-0.64 -0.61,-0.23 -1.37,0.15 -1.56,0.77 -0.07,0.26 -0.06,0.53 -0.13,0.79 -0.29,1.05 -1.81,1.49 -1.85,2.57 -0.03,0.73 0.69,1.43 0.41,2.11 -0.18,0.43 -0.74,0.73 -0.67,1.19 0.04,0.3 0.36,0.5 0.66,0.5 0.3,-0.01 0.57,-0.17 0.8,-0.37 0.36,-0.31 0.63,-0.72 0.97,-1.05 0.35,-0.33 0.8,-0.6 1.28,-0.54 0.46,0.05 0.87,0.41 1.33,0.34 0.36,-0.07 0.63,-0.39 0.99,-0.48 0.34,-0.09 0.69,0.04 1.03,0.06 0.35,0.02 0.77,-0.16 0.78,-0.5 0,-0.09 -0.02,-0.17 0.01,-0.25 0.07,-0.22 0.45,-0.21 0.53,-0.44 -0.19,-0.27 -0.44,-0.17 -0.57,-0.54 -0.1,-0.28 -0.02,-0.64 0.03,-0.93z"/>
   <path class="fil0" d="M16.15 44.24c0.01,-0.05 0.02,-0.11 0.02,-0.16 -0.04,-0.51 -0.37,-0.74 -0.54,-1.22 -0.08,-0.21 0.27,-0.67 -0.19,-0.77 -0.17,-0.04 -0.6,-0.07 -0.96,-0.15 -0.52,-0.11 -1.12,-0.57 -1.53,-1.02 -1.6,-1.78 -2.68,-3.95 -3.67,-6.13 -0.06,-0.12 -0.11,-0.25 -0.11,-0.39 0.01,-0.24 0.22,-0.42 0.41,-0.58 0.87,-0.72 1.68,-1.53 2.4,-2.4 0.64,-0.78 1.24,-1.63 1.48,-2.61 0.25,-0.98 0.1,-2.11 -0.6,-2.85 -0.52,-0.54 -1.32,-0.82 -2.07,-0.7 -1.85,0.28 -2.52,2.94 -3.2,4.4 -0.64,1.38 -1.19,2.8 -1.64,4.26 -0.05,0.18 -0.1,0.36 -0.08,0.55 0.02,0.2 0.12,0.38 0.22,0.55 1.31,2.22 2.81,4.32 4.35,6.39 0.43,0.57 1.1,0.85 1.49,1.38 0.25,0.34 0.2,0.78 0.36,1.15 0.16,0.37 0.47,0.81 0.75,1.09 0.57,0.56 1.37,0.43 2.09,0.39 0.18,-0.01 0.3,-0.02 0.44,-0.11 0.23,-0.14 0.33,-0.38 0.43,-0.63 0.06,-0.14 0.11,-0.29 0.15,-0.44z"/>
   <path class="fil1" d="M8.24 29.32c1.11,1.03 2.22,2.06 3.34,3.09 -0.07,-0.06 4.98,-4.76 5.27,-5.06 1.12,-1.1 2.26,-2.26 2.81,-3.73 1.17,-3.14 -2.07,-6.14 -5.07,-4.41 -3.26,1.88 -6.08,5.17 -7.54,8.63 -0.03,0.07 -0.06,0.15 -0.05,0.23 0.01,0.11 0.1,0.2 0.18,0.28 0.35,0.32 0.7,0.65 1.06,0.97z"/>
  </g>
 </g>
</svg>
