<?xml version="1.0" encoding="UTF-8"?>
<!DOCTYPE svg PUBLIC "-//W3C//DTD SVG 1.1//EN" "http://www.w3.org/Graphics/SVG/1.1/DTD/svg11.dtd">
<!-- Creator: CorelDRAW 2018 (64-Bit Evaluation Version) -->
<svg xmlns="http://www.w3.org/2000/svg" xml:space="preserve" width="69px" height="124px" version="1.1" style="shape-rendering:geometricPrecision; text-rendering:geometricPrecision; image-rendering:optimizeQuality; fill-rule:evenodd; clip-rule:evenodd"
viewBox="0 0 23.62 42.35"
 xmlns:xlink="http://www.w3.org/1999/xlink">
 <defs>
  <style type="text/css">
   <![CDATA[
    .fil6 {fill:#665549;fill-rule:nonzero}
    .fil7 {fill:#736052;fill-rule:nonzero}
    .fil2 {fill:#EDCEAF;fill-rule:nonzero}
    .fil3 {fill:#F0F0F0;fill-rule:nonzero}
    .fil4 {fill:#F4F4F4;fill-rule:nonzero}
    .fil1 {fill:#FBBC05;fill-rule:nonzero}
    .fil5 {fill:#FBC935;fill-rule:nonzero}
    .fil0 {fill:#FEE0D4;fill-rule:nonzero}
   ]]>
  </style>
 </defs>
 <g id="Layer_x0020_1">
  <metadata id="CorelCorpID_0Corel-Layer"/>
  <g id="_1845897287696">
   <path class="fil0" d="M0.91 5.64c0.03,0 0.06,0 0.08,0.01 0.25,0.09 0.33,0.28 0.54,0.43 0.1,0.07 0.38,-0.04 0.37,0.2 0,0.09 -0.04,0.31 -0.05,0.5 -0.02,0.28 0.13,0.65 0.31,0.91 0.68,1.05 1.63,1.88 2.59,2.67 0.06,0.05 0.12,0.09 0.19,0.11 0.12,0.02 0.24,-0.06 0.34,-0.13 0.49,-0.34 1,-0.64 1.53,-0.89 0.48,-0.22 0.99,-0.4 1.52,-0.4 0.53,0.01 1.08,0.24 1.35,0.69 0.21,0.33 0.24,0.77 0.08,1.13 -0.39,0.9 -1.82,0.88 -2.64,1.03 -0.78,0.14 -1.57,0.23 -2.37,0.26 -0.1,0 -0.2,0 -0.29,-0.03 -0.1,-0.04 -0.17,-0.12 -0.25,-0.19 -0.94,-0.96 -1.8,-1.99 -2.64,-3.05 -0.23,-0.29 -0.28,-0.66 -0.49,-0.93 -0.14,-0.17 -0.37,-0.21 -0.54,-0.34 -0.16,-0.13 -0.34,-0.34 -0.44,-0.52 -0.21,-0.36 -0.04,-0.75 0.08,-1.1 0.03,-0.09 0.05,-0.15 0.11,-0.21 0.1,-0.1 0.24,-0.12 0.38,-0.14 0.08,-0.01 0.16,-0.01 0.24,-0.01z"/>
   <path class="fil1" d="M7.51 12.52c-0.86,0.13 -1.74,0.17 -2.54,0.11 -0.2,-0.02 -0.41,-0.04 -0.58,-0.14 -0.15,-0.08 -0.26,-0.21 -0.38,-0.33 -0.65,-0.72 -1.31,-1.44 -1.97,-2.16 -0.09,-0.11 -0.19,-0.24 -0.15,-0.37 0.03,-0.08 0.1,-0.13 0.17,-0.18 0.32,-0.22 0.64,-0.44 0.95,-0.66 0.06,-0.03 0.12,-0.08 0.19,-0.07 0.07,0 0.12,0.04 0.17,0.08 0.31,0.27 0.48,0.69 0.81,0.93 0.3,0.21 0.71,0.25 1.08,0.17 1.54,-0.33 2.92,-1.58 4.26,-2.36 0.7,-0.42 1.44,-0.84 2.25,-0.92 1.74,-0.17 2.82,1.86 1.55,3.15 -1.08,1.09 -2.48,1.87 -3.94,2.32 -0.58,0.18 -1.22,0.33 -1.87,0.43z"/>
   <polygon class="fil2" points="11.44,38.71 11.72,40.68 10.55,40.84 10.25,38.66 "/>
   <path class="fil1" d="M10.62 40.52l1.05 0.21 0.35 0.29 0.04 0.78 -2.72 0.55 0 0c-0.27,-0.3 -0.18,-0.78 0.19,-0.96l0.12 -0.06 0.97 -0.81z"/>
   <path class="fil2" d="M19.89 30.94c0.49,-0.16 0.97,-0.48 1.47,-0.6 0.02,0.39 0.06,0.77 0.09,1.16 -0.6,0.28 -1.22,0.5 -1.87,0.62 0.1,-0.39 0.24,-0.78 0.31,-1.18z"/>
   <path class="fil1" d="M21.49 31.48c-0.04,-0.05 -0.04,-0.05 -0.07,-0.17 -0.08,-0.28 -0.27,-1.07 0,-1.31 0.05,-0.04 0.07,0 0.11,0.02 0.65,0.31 1.12,0.67 1.64,1.19 0.22,0.23 0.44,0.51 0.45,0.84 0.01,0.14 -0.05,0.25 -0.11,0.37 -0.08,0.16 -0.17,0.31 -0.28,0.46 -0.03,0.05 -0.07,0.11 -0.14,0.1 -0.15,-0.01 -0.23,-0.18 -0.26,-0.32 -0.03,-0.15 -0.04,-0.32 -0.13,-0.44 -0.04,-0.05 -0.11,-0.09 -0.16,-0.12 -0.38,-0.22 -0.78,-0.24 -1.05,-0.62z"/>
   <path class="fil3" d="M11.41 29.91c0.95,1.69 2.35,2.43 4.03,2.95 1.93,0.6 3.59,0.27 5.31,-0.69 0.03,-0.57 -0.03,-1.14 0.02,-1.68 -1.91,0.3 -2.84,0.23 -4.13,-1.47 -1.86,-2.47 -0.01,-6.1 -0.52,-9.08 -0.06,-0.34 -0.15,-0.68 -0.33,-0.98 -2.02,-3.5 -5.66,-1.16 -6.11,2.04 -0.4,2.86 0.31,6.39 1.73,8.91z"/>
   <path class="fil4" d="M14.94 19.67c-0.13,-1.06 -0.39,-2.07 -0.69,-2.83 -1.65,0.12 -3.48,0.53 -5.06,1.06 -1.55,0.52 -2.49,0.99 -2.29,2.71 0.37,3.16 -0.53,6.01 -0.68,9.12 -0.09,1.81 0.64,3.32 1.44,4.88 0.91,1.79 1.73,3.63 2.44,5.5 0.55,-0.07 1.1,-0.14 1.65,-0.21 0.24,-2.51 -0.3,-5.02 -0.57,-7.52 -0.18,-1.74 -0.22,-3.54 0.21,-5.25 0.48,-1.88 1.58,-1.29 2.61,-2.47 1,-1.15 1.16,-3.15 0.94,-4.99z"/>
   <path class="fil5" d="M12.73 7.42c0.19,0.14 0.36,0.3 0.52,0.46 0.15,0.14 0.3,0.29 0.45,0.43 0.52,0.5 0.8,1.27 1.04,1.93 1.27,3.47 1.9,8.28 1.35,12 -2.72,0.36 -5.91,-0.18 -8.65,-0.42 -0.26,-0.02 -0.57,-0.07 -0.72,-0.29 -0.09,-0.14 -0.1,-0.31 -0.1,-0.47 -0.11,-2.34 0.26,-4.87 0.62,-7.2 0.15,-0.98 0.34,-1.95 0.61,-2.91 0.28,-1.01 0.59,-2.11 1.32,-2.9 0.78,-0.85 2.33,-1.32 3.39,-0.74 0.06,0.04 0.12,0.07 0.17,0.11z"/>
   <path class="fil0" d="M12.46 7.93c0.03,-0.32 0.07,-0.64 0.1,-0.96 0.06,-0.04 0.13,-0.08 0.18,-0.12 1.11,-0.78 2.83,-4.77 -0.24,-5.5 -2.8,-0.66 -2.47,3.12 -1.86,4.68 0.1,0.26 0.24,0.51 0.43,0.72 0.13,0.15 0.16,0.12 0.15,0.3 -0.01,0.17 -0.17,0.37 -0.2,0.55 -0.03,0.19 -0.01,0.4 0.11,0.56 0.07,0.09 0.18,0.16 0.29,0.21 0.17,0.09 0.37,0.13 0.55,0.08 0.22,-0.05 0.46,-0.29 0.49,-0.52z"/>
   <path class="fil6" d="M9.92 4.62c0.2,0.5 0.45,0.97 0.77,1.4 -0.06,-0.93 0.01,-1.87 0.21,-2.79 0.01,-0.07 0.02,-0.14 -0.02,-0.2 -0.03,-0.06 -0.1,-0.08 -0.17,-0.09 -1.17,-0.19 -1.12,0.82 -0.79,1.68z"/>
   <path class="fil7" d="M13.04 5.89c0.2,0.25 0.6,0.16 0.88,0 1.15,-0.65 1.78,-2.11 1.46,-3.39 -0.27,-1.07 -1.67,-1.82 -1.89,-0.46 -0.07,0.48 0.25,1.12 0.21,1.65 -0.06,0.76 -0.38,1.5 -0.66,2.2z"/>
   <path class="fil7" d="M9.74 0.48c-0.13,0.06 -0.26,0.12 -0.4,0.19 -0.29,0.12 -0.5,0.17 -0.81,0.02 -0.09,-0.05 -0.69,-0.57 -0.56,-0.69 -0.89,0.8 -0.08,1.86 0.31,2.62 0.26,0.52 0.34,1.26 0.88,1.58 0.6,0.35 0.97,-0.15 1.48,-0.39 0.46,-0.21 0.95,-0.33 1.42,-0.52 0.76,-0.32 1.9,-0.86 1.6,-1.89 -0.36,-1.2 -1.61,-1.44 -2.7,-1.3 -0.47,0.07 -0.84,0.21 -1.22,0.38z"/>
   <path class="fil0" d="M9.36 9.01c0.03,-0.01 0.06,-0.01 0.08,-0.01 0.27,0.02 0.39,0.19 0.63,0.29 0.11,0.04 0.36,-0.14 0.41,0.1 0.02,0.09 0.03,0.31 0.07,0.5 0.05,0.27 0.29,0.59 0.52,0.8 0.45,0.41 2.09,1.01 1.96,1.77 -0.29,1.8 -2.67,-1.04 -2.94,-1.24 -0.17,-0.13 -0.4,-0.11 -0.6,-0.2 -0.19,-0.08 -0.42,-0.25 -0.56,-0.4 -0.29,-0.29 -0.22,-0.71 -0.19,-1.09 0.01,-0.09 0.01,-0.15 0.06,-0.23 0.07,-0.12 0.2,-0.17 0.33,-0.22 0.07,-0.03 0.15,-0.06 0.23,-0.07z"/>
   <path class="fil1" d="M16.47 14.67c-0.23,0.74 -1.68,0.26 -2.18,0.03 -1.07,-0.46 -2.07,-1.03 -2.99,-1.74 -0.06,-0.05 -0.12,-0.1 -0.13,-0.17 -0.01,-0.07 0.03,-0.14 0.07,-0.2 0.26,-0.36 0.52,-0.73 0.78,-1.09 0.06,-0.08 0.12,-0.16 0.2,-0.2 0.33,-0.15 0.78,0.28 1.12,0.31 0.09,-0.82 -0.4,-1.52 -0.64,-2.26 -0.34,-1.02 0.83,-1.3 1.47,-0.77 0.77,0.64 1.29,1.6 1.62,2.53 0.36,1.01 0.53,2.08 0.7,3.14 0.02,0.17 0.02,0.31 -0.02,0.42z"/>
  </g>
 </g>
</svg>
