<?xml version="1.0" encoding="UTF-8"?>
<!DOCTYPE svg PUBLIC "-//W3C//DTD SVG 1.1//EN" "http://www.w3.org/Graphics/SVG/1.1/DTD/svg11.dtd">
<!-- Creator: CorelDRAW 2018 (64-Bit Evaluation Version) -->
<svg xmlns="http://www.w3.org/2000/svg" xml:space="preserve" width="63px" height="143px" version="1.1" style="shape-rendering:geometricPrecision; text-rendering:geometricPrecision; image-rendering:optimizeQuality; fill-rule:evenodd; clip-rule:evenodd"
viewBox="0 0 24.12 54.59"
 xmlns:xlink="http://www.w3.org/1999/xlink">
 <defs>
  <style type="text/css">
   <![CDATA[
    .fil1 {fill:#4285F4;fill-rule:nonzero}
    .fil4 {fill:#53453E;fill-rule:nonzero}
    .fil0 {fill:#EAC8A7;fill-rule:nonzero}
    .fil2 {fill:#F1F3F4;fill-rule:nonzero}
    .fil5 {fill:#F2F2F2;fill-rule:nonzero}
    .fil3 {fill:#F7F7F7;fill-rule:nonzero}
   ]]>
  </style>
 </defs>
 <g id="Layer_x0020_1">
  <metadata id="CorelCorpID_0Corel-Layer"/>
  <g id="_1845856894848">
   <path class="fil0" d="M14.68 41.81l0.07 4.22c-0.03,1.17 0.08,2.34 0.15,3.51 0.06,1.08 -0.16,2.2 0.36,3.2 0.16,0.32 0.5,0.53 0.76,0.17 0.21,-0.28 0.11,-0.76 0.16,-1.09 0.38,-2.45 1.07,-4.83 1.42,-7.28 0.36,-2.57 -0.63,-2.5 -2.92,-2.73z"/>
   <polygon class="fil1" points="14.92,52.02 14.65,52.72 15.98,53.9 17.2,53.95 17.6,53.3 15.96,51.87 "/>
   <path class="fil0" d="M11.69 41.85l-0.77 4.15c-0.27,1.86 -0.87,3.67 -1.14,5.52 -0.06,0.43 -0.03,0.9 -0.21,1.3 -0.17,0.39 -0.51,0.41 -0.81,0.14 -0.41,-0.36 -0.22,-1 -0.21,-1.49 0.05,-3.25 -0.21,-6.46 -0.27,-9.73 0,-0.04 0,-0.09 0.03,-0.11 0.03,-0.03 0.07,-0.03 0.1,-0.02 0.32,0.02 3.26,0.33 3.28,0.24z"/>
   <polygon class="fil1" points="8.54,52.19 8.11,52.82 9.15,54.26 10.33,54.59 10.86,54.05 9.58,52.28 "/>
   <polygon class="fil1" points="19.03,44.5 18.45,38.47 18.17,34.55 17.24,31.35 12.2,30.57 5.97,31.63 5.67,32.84 6.87,44.05 12.88,44.5 12.8,37.52 13.73,41.85 13.69,44.5 "/>
   <path class="fil2" d="M7.29 19.56c0,0.21 -0.01,0.41 -0.01,0.61 -0.08,4.14 0.15,8.33 0.18,12.5 2.13,-0.33 4.29,-0.52 6.46,-0.55 0.5,-0.01 2.77,0.34 3.09,0.05 0.43,-0.41 -0.04,-0.33 -0.01,-0.86 0.04,-0.69 -0.29,-1.25 -0.17,-2.06 0.15,-0.95 0.44,-1.89 0.61,-2.84 0.33,-1.91 0.53,-3.84 0.6,-5.78 0.06,-1.71 -0.01,-3.5 -0.74,-5.05 -1.83,-3.82 -7.7,-3.76 -9.31,0.24 -0.48,1.18 -0.64,2.46 -0.7,3.74z"/>
   <path class="fil3" d="M13.92 14.2l-1.59 2.9c0.08,2.94 0.16,5.87 0.25,8.81 0.03,1.35 0.07,2.71 0.11,4.06 0.01,0.47 0.03,0.94 0.04,1.41 0.01,0.21 -0.05,0.57 0.07,0.74 0.26,0.37 1.22,0.26 1.63,0.29 0.65,0.05 1.31,0.1 1.92,0.33 0.41,0.15 0.8,0.37 1.22,0.43 0.1,0.01 0.21,0.02 0.28,-0.05 0.09,-0.06 0.1,-0.18 0.11,-0.29 0.15,-2.02 0.15,-4.1 0.27,-6.13 0.09,-1.67 0.32,-3.43 0.18,-5.1 -0.01,-0.03 -0.01,-0.06 -0.01,-0.09 -0.52,-2.78 0.55,-4.91 -1.48,-7.39 -1.09,-1.34 -1.65,-1.18 -3.1,-1.54 -0.36,-0.09 -1.15,-0.37 -0.95,0.35 0.11,0.42 0.77,0.93 1.05,1.27z"/>
   <path class="fil3" d="M10.45 14.47l1.6 2.91c-0.04,0 -0.21,7.12 -0.22,7.6 -0.05,1.83 -0.1,3.66 -0.16,5.49 -0.01,0.51 0.06,1.1 -0.04,1.6 -0.14,0.7 -0.87,0.56 -1.5,0.62 -1.37,0.12 -2.81,0.36 -4.18,0.29 -0.4,-0.02 0.12,-8.29 0.12,-9.06 0,-2.77 -0.57,-5.85 0.84,-8.36 0.41,-0.73 1.13,-1.91 1.93,-2.27 0.74,-0.34 1.8,-0.39 2.61,-0.58l0.04 0.52 -1.04 1.24z"/>
   <path class="fil4" d="M13.91 7.43c0.25,0.44 0.38,0.95 0.4,1.45 0,0.14 0.01,0.29 0.12,0.37 0.12,0.09 0.02,0.27 0.1,0.16 0.09,-0.11 0.39,-0.51 0.41,-0.65 0.03,-0.34 0.03,-0.68 0,-1.02 -0.03,-0.29 -0.09,-0.59 -0.28,-0.82 -0.12,-0.13 -0.27,-0.22 -0.42,-0.31 -0.21,-0.13 -0.44,-0.26 -0.69,-0.31 -0.42,-0.08 -0.69,0.07 -0.31,0.37 0.27,0.22 0.5,0.46 0.67,0.76z"/>
   <path class="fil0" d="M11.24 13.17c0,0.21 -0.04,0.42 0.14,0.58 0.09,0.08 0.21,0.11 0.32,0.13 0.3,0.05 0.61,0.02 0.9,-0.06 0.12,-0.04 0.24,-0.09 0.33,-0.18 0.1,-0.1 0.11,-0.2 0.11,-0.33 0.01,-0.15 0.04,-0.31 0.06,-0.47 0.05,-0.35 0.07,-0.7 0.08,-1.05 0.51,-0.08 1.11,-0.25 1.29,-0.79 0.05,-0.17 0.06,-0.35 0.06,-0.53 0,-0.75 0.01,-1.49 0.01,-2.23 0,-0.26 0.01,-0.53 -0.08,-0.77 -0.16,-0.42 -0.55,-0.67 -0.94,-0.82 -0.98,-0.4 -2.13,-0.39 -3.03,0.18 -0.25,0.15 -0.47,0.35 -0.61,0.62 -0.22,0.4 -0.19,0.91 -0.16,1.38 0.03,0.44 0.06,0.87 0.09,1.31 0.04,0.5 0.12,1.08 0.5,1.34 0.21,0.14 0.48,0.17 0.66,0.35 0.31,0.32 0.16,0.79 0.25,1.17 0.01,0.06 0.02,0.11 0.02,0.17z"/>
   <path class="fil4" d="M12.85 11.22c-0.27,0.18 -0.56,0.19 -0.86,0.1 -0.13,-0.04 -0.07,-0.25 0.05,-0.21 0.25,0.07 0.48,0.07 0.71,-0.08 0.11,-0.07 0.21,0.12 0.1,0.19zm1.86 -1.05c-0.01,-0.14 -0.07,-0.54 -0.28,-0.29 -0.05,0.07 -0.07,0.16 -0.07,0.25 0,0.09 0,0.18 -0.03,0.27 -0.06,0.19 -0.27,0.27 -0.46,0.27 -0.08,0 -0.15,-0.01 -0.22,-0.05 -0.06,-0.04 -0.11,-0.1 -0.16,-0.15 -0.13,-0.14 -0.25,-0.28 -0.37,-0.42 -0.21,-0.24 -0.62,-0.13 -0.9,-0.1 -0.32,0.04 -0.65,0.14 -0.91,0.35 -0.03,0.03 -0.05,0.05 -0.08,0.07 -0.06,0.06 -0.13,0.11 -0.2,0.15 -0.25,0.12 -0.56,-0.01 -0.73,-0.24 -0.08,-0.1 -0.16,-0.23 -0.28,-0.25 -0.1,-0.02 -0.19,0.05 -0.24,0.15 -0.05,0.09 -0.07,0.19 -0.07,0.3 -0.03,0.39 0.02,0.78 0.19,1.12 0.36,0.74 1.06,0.83 1.76,0.82 0.28,-0.01 0.56,-0.02 0.84,-0.02 0.5,-0.01 1.04,-0.04 1.47,-0.33 0.37,-0.26 0.6,-0.7 0.69,-1.17 0.05,-0.24 0.06,-0.48 0.05,-0.73z"/>
   <path class="fil4" d="M14.81 6.14c0.05,-0.18 0.09,-0.37 0.11,-0.55 -0.17,0.06 -0.36,0.07 -0.54,0.04 0,-0.1 0,-0.21 0,-0.32 0,-0.09 -1.2,-0.15 -1.3,-0.16 -0.92,-0.07 -1.76,-0.14 -2.58,0.35 -0.71,0.42 -1.17,1.05 -1.27,1.86 -0.11,0.78 0.15,1.8 0.6,2.45 0,-0.21 -0.12,-0.7 -0.07,-0.9 0.03,-0.19 0.09,-0.38 0.19,-0.56 0.19,-0.35 0.48,-0.65 0.81,-0.86 0.54,-0.34 1.17,-0.51 1.79,-0.6 0.57,-0.08 1.27,-0.15 1.83,0 0.27,0.07 0.32,0.14 0.48,-0.13 0.03,-0.05 0.26,-0.62 0.24,-0.62 -0.1,0 -0.19,0 -0.29,0z"/>
   <path class="fil0" d="M3.86 1.02c0.02,0.03 0.03,0.06 0.04,0.09 0.08,0.29 -0.05,0.49 -0.06,0.78 0,0.14 0.28,0.33 0.04,0.48 -0.08,0.05 -0.32,0.15 -0.5,0.26 -0.28,0.17 -0.52,0.54 -0.66,0.88 -0.25,0.6 -0.43,1.23 -0.56,1.86 -0.11,0.57 -0.39,1.44 -0.28,2.02 0.09,0.51 0.78,1.17 1.09,1.61 0.39,0.55 0.77,1.11 1.14,1.68 0.27,0.4 0.53,0.81 0.64,1.28 0.06,0.28 0.06,0.6 -0.11,0.83 -0.12,0.15 -0.29,0.24 -0.46,0.33 -0.29,0.15 -0.61,0.31 -0.93,0.27 -0.41,-0.05 -0.71,-0.38 -0.97,-0.7 -0.58,-0.71 -1.11,-1.47 -1.53,-2.28 -0.3,-0.58 -0.86,-1.6 -0.73,-2.26 0.3,-1.5 0.73,-2.97 1.19,-4.43 0.13,-0.4 0.45,-0.69 0.57,-1.06 0.07,-0.24 -0.04,-0.48 -0.02,-0.72 0.02,-0.24 0.1,-0.54 0.21,-0.76 0.2,-0.42 0.68,-0.5 1.09,-0.62 0.1,-0.03 0.17,-0.05 0.27,-0.03 0.16,0.04 0.26,0.16 0.36,0.27 0.07,0.07 0.12,0.14 0.17,0.22z"/>
   <path class="fil5" d="M2.43 11.57c0.43,-0.39 1.15,-1.36 1.7,-1.54 0.73,-0.24 0.95,0.4 1.45,1.01 0.39,0.49 0.8,0.98 1.34,1.29 0.82,0.48 1.83,0.46 2.71,0.82 0.13,0.06 0.28,0.13 0.36,0.25 0.07,0.12 0.09,0.26 0.08,0.39 0,0.57 -0.25,1.11 -0.5,1.62 -0.64,1.37 -1.29,2.74 -1.94,4.11 -0.03,0.07 -0.07,0.15 -0.14,0.2 -0.19,0.12 -0.42,-0.09 -0.54,-0.28 -0.84,-1.22 -1.55,-2.34 -2.66,-3.28 -1.15,-0.96 -2,-2.34 -2.58,-3.71 -0.02,-0.05 -0.03,-0.09 -0.03,-0.14 0.01,-0.07 0.06,-0.12 0.11,-0.16 0.21,-0.19 0.42,-0.38 0.64,-0.58z"/>
   <path class="fil0" d="M20.26 0.5c-0.01,0.02 -0.03,0.05 -0.04,0.09 -0.08,0.29 0.06,0.48 0.06,0.78 0.01,0.13 -0.28,0.33 -0.04,0.47 0.09,0.06 0.32,0.16 0.51,0.27 0.27,0.17 0.52,0.54 0.66,0.87 0.25,0.6 0.43,1.23 0.55,1.87 0.12,0.57 0.39,1.44 0.29,2.01 -0.1,0.52 -0.79,1.17 -1.1,1.61 -0.39,0.56 -0.77,1.12 -1.14,1.69 -0.26,0.4 -0.53,0.81 -0.64,1.27 -0.06,0.29 -0.06,0.61 0.12,0.84 0.11,0.15 0.28,0.24 0.45,0.32 0.29,0.15 0.61,0.31 0.94,0.27 0.4,-0.05 0.71,-0.38 0.96,-0.69 0.58,-0.72 1.12,-1.47 1.54,-2.29 0.29,-0.58 0.86,-1.6 0.72,-2.25 -0.3,-1.51 -0.73,-2.97 -1.19,-4.44 -0.13,-0.4 -0.45,-0.68 -0.57,-1.06 -0.07,-0.23 0.05,-0.47 0.03,-0.71 -0.02,-0.24 -0.11,-0.55 -0.21,-0.76 -0.21,-0.42 -0.69,-0.51 -1.1,-0.62 -0.1,-0.03 -0.17,-0.05 -0.26,-0.03 -0.16,0.03 -0.26,0.15 -0.37,0.27 -0.06,0.06 -0.12,0.14 -0.17,0.22z"/>
   <path class="fil5" d="M21.7 11.05c-0.44,-0.39 -1.16,-1.36 -1.7,-1.54 -0.73,-0.25 -0.96,0.4 -1.46,1.01 -0.39,0.48 -0.8,0.98 -1.33,1.29 -0.82,0.47 -1.84,0.46 -2.71,0.82 -0.14,0.05 -0.28,0.12 -0.36,0.25 -0.08,0.11 -0.09,0.25 -0.09,0.39 0.01,0.57 0.25,1.1 0.5,1.62 0.65,1.37 1.29,2.73 1.94,4.1 0.04,0.08 0.08,0.16 0.15,0.2 0.19,0.12 0.41,-0.09 0.54,-0.27 0.83,-1.23 1.54,-2.35 2.65,-3.29 1.15,-0.96 2.01,-2.34 2.58,-3.71 0.02,-0.04 0.04,-0.09 0.03,-0.14 -0.01,-0.06 -0.06,-0.11 -0.11,-0.16 -0.21,-0.19 -0.42,-0.38 -0.63,-0.57z"/>
  </g>
 </g>
</svg>
